# xmcd
#
# Track frame offsets: 
#        150
#        24383
#        48203
#        75278
#        100630
#        137245
#        161373
#        195163
#        223888
#
# Disc length: 3368 seconds
#
# Revision: 4
# Processed by: cddbd v1.5.2PL0 Copyright (c) Steve Scherf et al.
# Submitted via: ExactAudioCopy v0.95b4
#
DISCID=640d2609
DTITLE=FOUR of a KIND - FOUR of a KIND
DYEAR=2002
DGENRE=Fusion
TTITLE0=FAST TRACK
TTITLE1=ALAMODE
TTITLE2=WHAT'S GOING ON
TTITLE3=SHORT CUT
TTITLE4=FARAWAY
TTITLE5=JOLLY BIG FEET
TTITLE6=WIND AND LEAF
TTITLE7=STEAMY CITY
TTITLE8=EGRET
EXTD=YEAR: 2002
EXTT0=
EXTT1=
EXTT2=
EXTT3=
EXTT4=
EXTT5=
EXTT6=
EXTT7=
EXTT8=
PLAYORDER=
